<?xml version="1.0" encoding="utf-8"?>
<!-- Generator: Adobe Illustrator 16.0.0, SVG Export Plug-In . SVG Version: 6.00 Build 0)  -->
<!DOCTYPE svg PUBLIC "-//W3C//DTD SVG 1.1//EN" "http://www.w3.org/Graphics/SVG/1.1/DTD/svg11.dtd">
<svg version="1.1" id="Layer_1" xmlns="http://www.w3.org/2000/svg" xmlns:xlink="http://www.w3.org/1999/xlink" x="0px" y="0px"
	 width="160px" height="30px" viewBox="0 0 160 30" enable-background="new 0 0 160 30" xml:space="preserve">
<g>
	<path stroke="#000000" stroke-miterlimit="10" d="M4.396,21.016L4.941,16.9H3.22v-1.239H5.13l0.399-3.044H3.724v-1.239h1.995
		l0.546-4.01h1.218l-0.525,4.01h2.184l0.546-4.01h1.239l-0.525,4.01h1.722v1.239h-1.911l-0.378,3.044h1.806V16.9H9.645l-0.546,4.115
		h-1.26L8.385,16.9H6.201l-0.546,4.115H4.396z M8.574,15.662l0.399-3.044H6.789L6.39,15.662H8.574z"/>
	<path stroke="#000000" stroke-width="0.5" stroke-miterlimit="10" d="M14.476,7.053c0.924-0.189,2.247-0.294,3.506-0.294
		c1.953,0,3.212,0.357,4.094,1.155c0.714,0.63,1.113,1.596,1.113,2.688c0,1.869-1.176,3.107-2.667,3.612v0.062
		c1.092,0.378,1.743,1.386,2.079,2.855c0.462,1.975,0.798,3.338,1.092,3.885h-1.89c-0.231-0.398-0.546-1.617-0.945-3.381
		c-0.42-1.953-1.176-2.687-2.834-2.75h-1.722v6.13h-1.827V7.053z M16.302,13.499h1.869c1.953,0,3.191-1.071,3.191-2.688
		c0-1.827-1.323-2.625-3.254-2.646c-0.882,0-1.512,0.084-1.806,0.168V13.499z"/>
	<path stroke="#000000" stroke-width="0.5" stroke-miterlimit="10" d="M26.823,16.27c0.042,2.5,1.638,3.527,3.485,3.527
		c1.323,0,2.121-0.23,2.813-0.523l0.315,1.322c-0.651,0.293-1.764,0.629-3.38,0.629c-3.128,0-4.997-2.057-4.997-5.123
		c0-3.064,1.806-5.479,4.766-5.479c3.317,0,4.199,2.918,4.199,4.787c0,0.378-0.042,0.672-0.063,0.86H26.823z M32.24,14.948
		c0.021-1.176-0.483-3.002-2.562-3.002c-1.869,0-2.688,1.722-2.834,3.002H32.24z"/>
	<path stroke="#000000" stroke-width="0.5" stroke-miterlimit="10" d="M36.315,13.604c0-1.05-0.021-1.911-0.084-2.75h1.638
		l0.105,1.68h0.042c0.504-0.966,1.68-1.911,3.359-1.911c1.407,0,3.59,0.84,3.59,4.325v6.068h-1.848v-5.858
		c0-1.638-0.609-3.002-2.352-3.002c-1.218,0-2.163,0.861-2.478,1.89c-0.084,0.231-0.126,0.545-0.126,0.861v6.11h-1.848V13.604z"/>
	<path stroke="#000000" stroke-width="0.5" stroke-miterlimit="10" d="M53.597,21.016l-0.147-1.281h-0.063
		c-0.567,0.799-1.659,1.512-3.107,1.512c-2.058,0-3.107-1.449-3.107-2.918c0-2.457,2.184-3.8,6.11-3.779v-0.211
		c0-0.839-0.231-2.351-2.31-2.351c-0.945,0-1.932,0.294-2.646,0.756l-0.42-1.218c0.84-0.546,2.058-0.903,3.338-0.903
		c3.107,0,3.863,2.121,3.863,4.157v3.8c0,0.881,0.042,1.742,0.168,2.436H53.597z M53.324,15.83
		c-2.016-0.042-4.304,0.315-4.304,2.288c0,1.197,0.798,1.764,1.743,1.764c1.323,0,2.163-0.84,2.457-1.699
		c0.063-0.189,0.105-0.4,0.105-0.588V15.83z"/>
	<path stroke="#000000" stroke-width="0.5" stroke-miterlimit="10" d="M60.233,7.935v2.918h2.646v1.407h-2.646v5.48
		c0,1.26,0.357,1.973,1.386,1.973c0.483,0,0.84-0.062,1.071-0.125l0.084,1.385c-0.357,0.148-0.924,0.252-1.638,0.252
		c-0.861,0-1.554-0.271-1.995-0.775c-0.525-0.547-0.714-1.449-0.714-2.646V12.26h-1.575v-1.407h1.575V8.418L60.233,7.935z"/>
	<path stroke="#000000" stroke-width="0.5" stroke-miterlimit="10" d="M74.029,15.85c0,3.759-2.604,5.396-5.06,5.396
		c-2.75,0-4.871-2.016-4.871-5.229c0-3.4,2.226-5.395,5.039-5.395C72.056,10.623,74.029,12.743,74.029,15.85z M65.967,15.956
		c0,2.226,1.281,3.906,3.086,3.906c1.764,0,3.086-1.66,3.086-3.948c0-1.722-0.861-3.905-3.044-3.905S65.967,14.024,65.967,15.956z"
		/>
	<path stroke="#000000" stroke-width="0.5" stroke-miterlimit="10" d="M76.425,7.053c1.113-0.168,2.436-0.294,3.884-0.294
		c2.625,0,4.494,0.609,5.732,1.764c1.26,1.155,1.995,2.792,1.995,5.081c0,2.31-0.714,4.199-2.037,5.501
		c-1.323,1.322-3.507,2.035-6.257,2.035c-1.302,0-2.394-0.062-3.317-0.168V7.053z M78.251,19.566
		c0.462,0.084,1.134,0.105,1.848,0.105c3.905,0,6.026-2.184,6.026-6.005c0.021-3.338-1.869-5.459-5.732-5.459
		c-0.945,0-1.659,0.084-2.142,0.189V19.566z"/>
	<path stroke="#000000" stroke-width="0.5" stroke-miterlimit="10" d="M91.46,16.27c0.043,2.5,1.639,3.527,3.486,3.527
		c1.322,0,2.12-0.23,2.812-0.523l0.315,1.322c-0.651,0.293-1.764,0.629-3.38,0.629c-3.129,0-4.998-2.057-4.998-5.123
		c0-3.064,1.807-5.479,4.767-5.479c3.317,0,4.199,2.918,4.199,4.787c0,0.378-0.042,0.672-0.063,0.86H91.46z M96.878,14.948
		c0.021-1.176-0.483-3.002-2.562-3.002c-1.868,0-2.688,1.722-2.834,3.002H96.878z"/>
	<path stroke="#000000" stroke-width="0.5" stroke-miterlimit="10" d="M101.015,6.864h1.827v12.618h6.047v1.533h-7.874V6.864z"/>
	<path stroke="#000000" stroke-width="0.5" stroke-miterlimit="10" d="M119.052,18.244c0,1.049,0.021,1.973,0.084,2.771h-1.637
		l-0.105-1.658h-0.042c-0.483,0.818-1.554,1.889-3.359,1.889c-1.596,0-3.507-0.881-3.507-4.451v-5.941h1.848v5.627
		c0,1.932,0.588,3.232,2.268,3.232c1.239,0,2.1-0.859,2.436-1.68c0.105-0.271,0.168-0.607,0.168-0.943v-6.236h1.848V18.244z"/>
	<path stroke="#000000" stroke-width="0.5" stroke-miterlimit="10" d="M122.12,13.604c0-1.05-0.021-1.911-0.084-2.75h1.637
		l0.105,1.68h0.042c0.504-0.966,1.68-1.911,3.359-1.911c1.407,0,3.591,0.84,3.591,4.325v6.068h-1.848v-5.858
		c0-1.638-0.609-3.002-2.352-3.002c-1.219,0-2.163,0.861-2.479,1.89c-0.084,0.231-0.125,0.545-0.125,0.861v6.11h-1.848V13.604z"/>
	<path stroke="#000000" stroke-width="0.5" stroke-miterlimit="10" d="M139.401,21.016l-0.146-1.281h-0.063
		c-0.567,0.799-1.659,1.512-3.107,1.512c-2.058,0-3.107-1.449-3.107-2.918c0-2.457,2.184-3.8,6.11-3.779v-0.211
		c0-0.839-0.231-2.351-2.311-2.351c-0.944,0-1.932,0.294-2.645,0.756l-0.42-1.218c0.84-0.546,2.057-0.903,3.338-0.903
		c3.107,0,3.863,2.121,3.863,4.157v3.8c0,0.881,0.042,1.742,0.168,2.436H139.401z M139.128,15.83
		c-2.016-0.042-4.304,0.315-4.304,2.288c0,1.197,0.798,1.764,1.743,1.764c1.322,0,2.162-0.84,2.456-1.699
		c0.063-0.189,0.104-0.4,0.104-0.588V15.83z"/>
	<path stroke="#000000" stroke-miterlimit="10" d="M142.952,14.444c1.49,0,1.7-0.819,1.7-1.554c0-0.588-0.084-1.176-0.168-1.764
		s-0.168-1.155-0.168-1.743c0-1.932,1.26-2.75,3.044-2.75h0.441v1.155h-0.378c-1.239,0-1.659,0.672-1.659,1.806
		c0,0.483,0.063,0.987,0.147,1.491c0.084,0.525,0.147,1.029,0.147,1.596c0.021,1.344-0.567,2.016-1.512,2.268v0.042
		c0.944,0.231,1.532,0.944,1.512,2.288c0,0.568-0.063,1.092-0.147,1.596c-0.084,0.525-0.147,1.008-0.147,1.512
		c0,1.176,0.483,1.828,1.659,1.828h0.378v1.154h-0.441c-1.742,0-3.044-0.756-3.044-2.877c0-0.566,0.084-1.154,0.168-1.721
		c0.084-0.568,0.168-1.135,0.168-1.701c0-0.65-0.21-1.554-1.7-1.554V14.444z"/>
</g>
</svg>
